Fly_normalized_Motion_pl08
version=1
nRows=16
nColumns=43
inDegrees=yes
endheader
time		pelvis_tilt		pelvis_list		pelvis_rotation		pelvis_tx		pelvis_ty		pelvis_tz		hip_flexion_r		hip_adduction_r		hip_rotation_r		knee_angle_r		ankle_angle_r		subtalar_angle_r		mtp_angle_r		hip_flexion_l		hip_adduction_l		hip_rotation_l		knee_angle_l		ankle_angle_l		subtalar_angle_l		mtp_angle_l		lumbar_extension		lumbar_bending		lumbar_rotation		neck_flexion		neck_lateral_bending		neck_rotation		arm_flex_r		arm_add_r		arm_rot_r		elbow_flex_r		pro_sup_r		wrist_flex_r		wrist_dev_r		hand_finger_flex_r		arm_flex_l		arm_add_l		arm_rot_l		elbow_flex_l		pro_sup_l		wrist_flex_l		wrist_dev_l		hand_finger_flex_l		
1.964167		3.632868		-10.184475		87.874331		-0.015379		1.595396		1.110265		59.370525		-4.709440		-7.985714		-88.472963		-10.832797		-3.915209		30.383514		52.305291		-10.628927		-1.384993		-89.940194		-7.121539		1.263426		16.141621		-29.596672		1.015419		4.303226		-2.825814		3.715080		0.868841		56.800452		-24.316998		15.718141		62.858756		112.651643		4.185320		-5.421802		-33.535689		54.136125		-25.343137		9.044254		64.166987		114.094256		-13.834288		5.768026		-5.966709		
1.968081		3.641391		-9.955770		87.950712		-0.015643		1.591376		1.102159		58.732147		-4.669287		-8.208281		-86.803107		-11.298231		-4.129983		30.141054		51.966270		-10.625142		-1.813040		-88.268188		-7.512058		1.341810		15.832329		-29.604844		1.059779		4.332486		-3.144240		3.662926		0.740625		54.362193		-25.264126		14.967371		63.214705		112.772815		4.237548		-5.072976		-33.559121		51.902740		-26.264488		8.603663		64.850937		114.302214		-13.630086		6.077812		-6.036560		
1.971995		3.636610		-9.738026		88.014080		-0.016039		1.587153		1.093961		58.089191		-4.637386		-8.396695		-85.127940		-11.742551		-4.314149		29.934947		51.589692		-10.583557		-2.245160		-86.561281		-7.924561		1.400969		15.610445		-29.605390		1.118746		4.331151		-3.421240		3.609501		0.623365		51.878522		-26.153867		14.138643		63.571717		112.835510		4.214196		-4.829813		-33.502364		49.506777		-27.226257		8.037197		65.653016		114.303362		-13.511523		6.290159		-6.012730		
1.975909		3.627985		-9.479835		88.076962		-0.016248		1.582935		1.085762		57.355321		-4.548056		-8.564566		-83.381690		-12.229490		-4.656693		29.637391		51.117067		-10.543828		-2.660201		-84.777753		-8.352057		1.392302		15.363520		-29.714050		1.129577		4.265653		-3.372905		3.535687		0.527196		49.320825		-26.856231		12.979285		64.032681		113.087214		4.294170		-4.385065		-33.250562		46.939623		-28.164962		7.074501		66.802475		114.131382		-13.284434		6.773552		-5.871762		
1.979823		3.610317		-9.237376		88.155316		-0.016732		1.578287		1.077497		56.641098		-4.567516		-8.791294		-81.686789		-12.610758		-4.764109		29.411649		50.668528		-10.478190		-3.098891		-83.061082		-8.729398		1.458072		15.196272		-29.706954		1.190207		4.211262		-3.788669		3.470122		0.462961		46.867925		-27.838192		12.330509		64.365622		113.334186		4.421512		-4.187217		-33.033120		44.441449		-29.260111		6.578712		67.707987		114.033018		-13.122520		7.044001		-5.746717		
1.983737		3.624053		-8.947493		88.266605		-0.016945		1.573727		1.069196		55.807305		-4.479716		-8.968661		-79.909274		-12.989352		-4.856476		29.105127		50.112272		-10.419105		-3.439972		-81.233329		-9.145095		1.494810		15.017445		-29.837850		1.234368		4.065558		-3.749679		3.385960		0.405489		44.242219		-28.470725		11.102168		64.815604		113.721909		4.483599		-3.945430		-32.757693		41.664598		-30.288164		5.549653		69.011983		113.834457		-13.057274		7.434412		-5.592424		
1.987652		3.620869		-8.699640		88.365764		-0.017297		1.568706		1.060878		55.039535		-4.482488		-9.197958		-78.180738		-13.347449		-4.743400		28.888078		49.623212		-10.359485		-3.819196		-79.503862		-9.529760		1.610285		14.894023		-29.820787		1.301580		3.978822		-4.212115		3.316397		0.357370		41.687120		-29.415288		10.396559		65.193999		114.018496		4.593858		-3.876628		-32.573781		39.004888		-31.475749		5.051856		70.020809		113.824597		-12.999261		7.598843		-5.488671		
1.991566		3.642782		-8.441949		88.469487		-0.017472		1.563647		1.052532		54.212668		-4.394612		-9.354455		-76.377437		-13.721411		-4.471506		28.619403		49.064813		-10.320304		-4.129612		-77.684531		-9.939536		1.772107		14.752192		-29.871212		1.362311		3.848079		-4.317628		3.226863		0.326257		38.991226		-30.116059		9.260783		65.686130		114.448488		4.713799		-3.768761		-32.355667		36.115425		-32.617178		4.193280		71.295068		113.926128		-12.972972		7.815575		-5.423890		
1.995480		3.675690		-8.199696		88.565089		-0.017576		1.558423		1.044147		53.404028		-4.262508		-9.432980		-74.573092		-14.102356		-3.954008		28.333048		48.471775		-10.314856		-4.442026		-75.811426		-10.364919		2.047313		14.599871		-29.927082		1.421062		3.717073		-4.295192		3.107374		0.312006		36.197939		-30.737764		7.913547		66.274507		115.033836		4.936261		-3.666921		-32.106056		33.053401		-33.729609		3.144359		72.712014		114.277266		-12.892957		7.999270		-5.439031		
1.999394		3.677400		-7.955908		88.646279		-0.017794		1.552828		1.035699		52.611451		-4.194833		-9.505950		-72.819919		-14.467310		-3.404808		27.997237		47.875319		-10.281432		-4.778245		-73.996184		-10.787318		2.355093		14.426322		-29.902217		1.478484		3.593133		-4.703824		2.967566		0.322301		33.450685		-31.580608		6.913063		66.867786		115.824930		5.373826		-3.633371		-31.785863		29.988447		-34.952617		2.306189		74.013923		114.832662		-12.554800		8.147649		-5.484328		
2.003308		3.711184		-7.828287		88.737924		-0.017864		1.547053		1.027197		51.912014		-4.034377		-9.512168		-71.004518		-14.928881		-2.745908		27.855905		47.357131		-10.265787		-5.049311		-72.104041		-11.336853		2.759861		14.319539		-29.791444		1.549781		3.545130		-4.818368		2.809065		0.224769		30.399105		-32.205538		5.419261		67.500746		116.043849		5.321369		-3.742990		-31.757888		26.762517		-35.917112		1.227567		75.323483		115.194115		-12.689825		7.996880		-5.615805		
2.007222		3.723063		-7.666373		88.820517		-0.018075		1.541043		1.018651		51.170595		-3.935814		-9.538703		-69.203036		-15.314163		-2.064588		27.749688		46.794255		-10.225659		-5.338056		-70.245381		-11.881726		3.189360		14.231024		-29.719109		1.625945		3.473150		-4.922152		2.628752		0.145646		27.335215		-32.951841		4.012094		68.293601		116.451647		5.549907		-3.813214		-31.610408		23.412459		-36.926409		0.064446		76.701384		115.717147		-12.608954		7.868351		-5.685515		
2.011136		3.749451		-7.465997		88.966274		-0.018414		1.534862		1.010115		50.385946		-3.877388		-9.598466		-67.427132		-15.656287		-1.444639		27.707657		46.183337		-10.169753		-5.607566		-68.380720		-12.450523		3.580441		14.183481		-29.704435		1.747376		3.348481		-4.989452		2.433675		0.094735		24.235510		-33.750262		2.613921		69.160943		117.010782		5.932732		-3.885231		-31.406440		19.942304		-37.921003		-1.232068		78.163142		116.423067		-12.343127		7.699895		-5.726066		
2.015051		3.793774		-7.297499		89.142761		-0.018708		1.528466		1.001531		49.610851		-3.807218		-9.685247		-65.630939		-16.076859		-0.987496		27.717553		45.603700		-10.097226		-5.799258		-66.497565		-13.135311		3.907981		14.151658		-29.613843		1.884220		3.279030		-5.256027		2.260925		-0.018567		20.930212		-34.476286		1.090493		69.985440		117.056907		5.833822		-4.033826		-31.418721		16.491034		-38.838980		-2.365890		79.508628		116.759247		-12.534695		7.471339		-5.774938		
2.018965		3.857699		-7.072464		89.337582		-0.019131		1.521897		0.992974		48.744493		-3.762728		-9.841279		-63.805168		-16.448248		-0.579413		27.781334		44.958015		-10.015222		-5.954554		-64.623581		-13.811085		4.183175		14.159998		-29.630685		2.049460		3.176829		-5.223405		2.128379		-0.123495		17.511457		-35.219459		-0.526854		71.025121		117.108052		5.871757		-4.112695		-31.334151		12.875725		-39.788691		-3.619419		80.966702		117.147404		-12.670627		7.265300		-5.734910		
2.022879		3.941229		-6.804598		89.576799		-0.019566		1.515173		0.984436		47.818091		-3.724308		-10.031206		-61.980197		-16.824024		-0.271363		27.870164		44.262012		-9.941021		-6.083188		-62.737517		-14.490604		4.400869		14.199107		-29.706133		2.244637		3.062294		-5.133140		2.020461		-0.211090		14.015429		-35.936108		-2.217102		72.105523		117.115320		5.934688		-4.179467		-31.215804		9.165238		-40.733858		-4.926982		82.476546		117.532584		-12.787006		7.074574		-5.655671		
